Coordinates
version=1
nRows=21
nColumns=12
inDegrees=yes

Units are S.I. units (second, meters, Newtons, ...)
Angles are in degrees

endheader
time	SC_y	SC_z	SC_x	AC_y	AC_z	AC_x	GH_y	GH_z	GH_yy	EL_x	PS_y
       0.0              -24.35           18.4           26.4          54.95         -14.13         -16.68         -134.0          37.68          59.08          89.33          151.2
  0.004292              -24.35          18.41           26.4          54.95         -14.13         -16.67         -134.0          37.68          59.07          89.32          151.2
  0.008583              -24.35          18.41           26.4          54.95         -14.13         -16.67         -134.0          37.67          59.06          89.32          151.2
   0.01287              -24.35          18.41          26.39          54.94         -14.13         -16.67         -133.9          37.66          59.05          89.31          151.2
   0.01717              -24.35          18.41          26.39          54.94         -14.12         -16.67         -133.9          37.66          59.04          89.31          151.2
   0.02146              -24.35          18.41          26.39          54.93         -14.12         -16.67         -133.9          37.65          59.03           89.3          151.2
   0.02575              -24.36          18.42          26.38          54.93         -14.12         -16.67         -133.8          37.64          59.02           89.3          151.2
   0.03004              -24.36          18.42          26.38          54.92         -14.11         -16.66         -133.8          37.63           59.0          89.29          151.2
   0.03433              -24.36          18.42          26.38          54.92         -14.11         -16.66         -133.7          37.62          58.99          89.29          151.2
   0.03862              -24.36          18.43          26.37          54.91          -14.1         -16.66         -133.7          37.61          58.97          89.28          151.2
   0.04292              -24.37          18.43          26.37           54.9          -14.1         -16.65         -133.7           37.6          58.96          89.27          151.2
   0.04721              -24.37          18.43          26.36           54.9          -14.1         -16.65         -133.6          37.59          58.94          89.27          151.2
    0.0515              -24.37          18.44          26.36          54.89         -14.09         -16.65         -133.5          37.57          58.92          89.26          151.2
   0.05579              -24.38          18.44          26.35          54.88         -14.09         -16.64         -133.5          37.56           58.9          89.25          151.2
   0.06008              -24.38          18.45          26.35          54.87         -14.08         -16.64         -133.4          37.54          58.88          89.24          151.2
   0.06437              -24.38          18.45          26.34          54.86         -14.07         -16.64         -133.3          37.53          58.86          89.23          151.2
   0.06866              -24.39          18.46          26.34          54.85         -14.07         -16.63         -133.2          37.51          58.83          89.22          151.2
   0.07296              -24.39          18.46          26.33          54.84         -14.06         -16.63         -133.2          37.49          58.81           89.2          151.2
   0.07725               -24.4          18.47          26.32          54.83         -14.05         -16.62         -133.1          37.47          58.78          89.19          151.2
   0.08154               -24.4          18.48          26.31          54.82         -14.04         -16.62         -132.9          37.45          58.74          89.18          151.2
   0.08583              -24.41          18.48           26.3           54.8         -14.03         -16.61         -132.8          37.42          58.71          89.16          151.2
